<svg xmlns="http://www.w3.org/2000/svg" viewBox="0 0 272.83 272.83"><defs><style>.cls-1{fill:#231f20;}</style></defs><g id="Layer_2" data-name="Layer 2"><g id="Layer_1-2" data-name="Layer 1"><path class="cls-1" d="M237.65,70.36l-37.38,37.38L165.09,72.56l37.38-37.38A22,22,0,0,0,171.68,4.4L134.3,41.78,120,27.49a20.89,20.89,0,0,0-29.52-1.27c-.44.4-.86.82-1.27,1.27l-33,33a107.75,107.75,0,0,0-33,77A100.07,100.07,0,0,0,43.05,199L6.77,235.28A20.88,20.88,0,0,0,5.5,264.79c.4.44.83.87,1.27,1.27a20.88,20.88,0,0,0,29.51,1.27c.44-.4.87-.83,1.27-1.27l35.18-35.18a111,111,0,0,0,64.87,20.89,112.17,112.17,0,0,0,78.06-31.88l33-33a22,22,0,0,0,6.6-15.39,18.7,18.7,0,0,0-6.6-15.39l-17.59-17.59,37.38-37.38a22,22,0,0,0-30.78-30.79Z"/></g></g></svg>