<svg xmlns="http://www.w3.org/2000/svg" viewBox="0 0 134.67 148.67"><g id="Layer_2" data-name="Layer 2"><g id="Layer_1-2" data-name="Layer 1"><path d="M134.67,25.77A132.15,132.15,0,0,0,81,22.67L80.37,50h25.82v21.1H76.65c-2,9.57-8.6,34.05-30.65,54.54a102.86,102.86,0,0,1-40.3,23l-5.7-20c10.61-4.37,34-15.88,47.11-41.19a80.11,80.11,0,0,0,6.27-16.35H37.09V50H58l1-27.36A61.25,61.25,0,0,0,16.71,48.11L3.33,37.9a56.12,56.12,0,0,1,7.85-12.13c2.82-3.32,13-14.49,38.55-21.1,34.62-8.95,71.17-2.77,84.94,0Z"/></g></g></svg>