<svg xmlns="http://www.w3.org/2000/svg" viewBox="0 0 428.04 428.04"><defs><style>.cls-1{fill:#606060;fill-rule:evenodd;}</style></defs><g id="Layer_2" data-name="Layer 2"><g id="Layer_1-2" data-name="Layer 1"><g id="SVGRepo_iconCarrier" data-name="SVGRepo iconCarrier"><g id="Page-1"><g id="Dribbble-Light-Preview"><g id="icons"><path id="github-_142_" data-name="github-[#142]" class="cls-1" d="M214,0c118.2,0,214,98.23,214,219.43,0,96.94-61.26,179.16-146.24,208.2-10.85,2.16-14.71-4.68-14.71-10.54,0-7.23.26-30.86.26-60.22,0-20.45-6.85-33.81-14.53-40.62,47.66-5.43,97.74-24,97.74-108.27,0-24-8.3-43.53-22-58.9,2.22-5.54,9.56-27.86-2.1-58.08,0,0-17.94-5.88-58.79,22.5a198,198,0,0,0-107.18,0C119.55,85.12,101.57,91,101.57,91,90,121.22,97.29,143.54,99.5,149.08c-13.68,15.37-22,34.94-22,58.9,0,84.07,50,102.9,97.51,108.45-6.12,5.47-11.66,15.15-13.59,29.33-12.2,5.61-43.19,15.31-62.28-18.22,0,0-11.32-21.09-32.81-22.63,0,0-20.87-.28-1.45,13.34,0,0,14,6.74,23.75,32.1,0,0,12.56,39.17,72.1,25.89.11,18.34.3,35.64.3,40.85,0,5.8-3.93,12.6-14.61,10.56C61.32,398.65,0,316.39,0,219.43,0,98.23,95.84,0,214,0"/></g></g></g></g></g></g></svg>