<svg xmlns="http://www.w3.org/2000/svg" viewBox="0 0 257 262.58"><defs><style>.cls-1{fill:#404040;}</style></defs><g id="Layer_2" data-name="Layer 2"><g id="Layer_1-2" data-name="Layer 1"><g id="SVGRepo_iconCarrier" data-name="SVGRepo iconCarrier"><g id="Icons"><g id="Color-"><g id="Google"><path class="cls-1" d="M13.48,189.44l.25.52h0C13.65,189.78,13.56,189.61,13.48,189.44Z"/><path class="cls-1" d="M257,131.29c0,40.28-13.78,74.36-39.85,98.56C194.41,251,164,262.58,131.48,262.58,81.1,262.58,36,234.76,13.74,190c-.09-.17-.18-.34-.26-.51l-.18-.37a132.18,132.18,0,0,1,.18-115.94C35.7,28,80.91,0,131.48,0c32,0,62,11.35,86.65,32.81l.4.36-38.8,38.74-.35-.28a74.89,74.89,0,0,0-47.9-17.13A76.77,76.77,0,0,0,58.26,154.75l.22.66.08.23a76.64,76.64,0,0,0,72.92,52.43c16.49,0,31.43-3.93,43.22-11.36a58.46,58.46,0,0,0,26.42-38.17H131V107H253.92l.09.39A108.68,108.68,0,0,1,257,131.29Z"/></g></g></g></g></g></g></svg>