<svg xmlns="http://www.w3.org/2000/svg" viewBox="0 0 149.01 153.19"><defs><style>.cls-1{fill-rule:evenodd;}</style></defs><g id="Layer_2" data-name="Layer 2"><g id="Layer_1-2" data-name="Layer 1"><g id="out"><path id="path" class="cls-1" d="M131.43,84.1a59,59,0,0,0,.53-7.51,59,59,0,0,0-.53-7.5l16.16-12.64a3.86,3.86,0,0,0,.92-4.9l-15.32-26.5a3.85,3.85,0,0,0-4.67-1.69L109.45,31a56.53,56.53,0,0,0-13-7.51L93.59,3.22A3.74,3.74,0,0,0,89.84,0H59.2a3.74,3.74,0,0,0-3.75,3.22L52.54,23.51A59.21,59.21,0,0,0,39.59,31L20.52,23.36a3.73,3.73,0,0,0-4.67,1.69L.53,51.55a3.78,3.78,0,0,0,.92,4.9L17.61,69.09a60,60,0,0,0-.53,7.5,60.06,60.06,0,0,0,.53,7.51L1.45,96.74a3.85,3.85,0,0,0-.92,4.9l15.32,26.5a3.85,3.85,0,0,0,4.67,1.69l19.07-7.66a56.13,56.13,0,0,0,12.95,7.5L55.45,150a3.74,3.74,0,0,0,3.75,3.22H89.84A3.74,3.74,0,0,0,93.59,150l2.91-20.3a59.17,59.17,0,0,0,13-7.5l19.07,7.66a3.74,3.74,0,0,0,4.67-1.69l15.32-26.5a3.85,3.85,0,0,0-.92-4.9L131.43,84.1ZM74.52,103.4a26.81,26.81,0,1,1,26.81-26.81A26.84,26.84,0,0,1,74.52,103.4Z"/></g></g></g></svg>