<svg xmlns="http://www.w3.org/2000/svg" viewBox="0 0 149.76 147.97"><defs><style>.cls-1{fill:#404040;}</style></defs><g id="Layer_2" data-name="Layer 2"><g id="Layer_1-2" data-name="Layer 1"><path class="cls-1" d="M149.76,143.37V148l-3.31-1.13a7.92,7.92,0,0,1-3.06-2.12,8.92,8.92,0,0,0-.76-.7c-.63-.46-1.27-.94-1.91-1.43-1.47-1.11-3-2.25-4.45-3.18a47.56,47.56,0,0,0-5.79-3,57.76,57.76,0,0,1-6.07-3.08,73.79,73.79,0,0,1-6.37-4.54l-.24-.18a27.51,27.51,0,0,1-5.68-6.67,10.94,10.94,0,0,1-.82-1.79,4,4,0,0,0-.42-.93l-.8-.84.13-1.16c.33-3,3.18-3.83,4.56-4.2.37-.11.72-.2,1-.3a39.82,39.82,0,0,1,13.65-2.83l-.21-.13c-.63-.38-1.18-.72-1.56-1-.72-.5-1.43-1-2.15-1.53-2.46-1.77-5-3.6-7.56-5.1a23.39,23.39,0,0,0-4-1.63c-.9-.31-1.74-.6-2.48-.91s-1.8-.64-3-1c-3.25-1-6.62-2-8.16-4.06-2.88-3.78-4.83-8.22-6.71-12.52l-.55-1.24c-1-2.19-2.09-4.51-3.17-6.75-1.22-2.5-2.47-5.08-3.57-7.62-.46-1-.8-2-1.14-3a27.89,27.89,0,0,0-1.48-3.61A85.24,85.24,0,0,0,53.83,27.16a56,56,0,0,0-13.56-6.45,18.94,18.94,0,0,0-4.46-.53,29.48,29.48,0,0,1-4.71-.47H29l-.34-.11A11.2,11.2,0,0,1,24.53,17a13.91,13.91,0,0,0-1.28-1.06,52.21,52.21,0,0,0-9.15-4.68A12.29,12.29,0,0,0,10,10.13l-.31.25-.19.27a5.07,5.07,0,0,0,.55,1.67,23,23,0,0,0,3.23,4.77c.62.76,1.26,1.55,1.89,2.42a52.63,52.63,0,0,1,5.15,8l.06.12a74.64,74.64,0,0,1,3.29,9.17A75.24,75.24,0,0,0,26.5,44.7a33.09,33.09,0,0,0,3.33,5.84A10.66,10.66,0,0,0,31,51.72a9.77,9.77,0,0,1,2.74,3.76c1.22,2.41,0,6.1-1.76,10.64-.26.69-.49,1.27-.62,1.67-2.35,7.3-2,17.84.82,24.54l.29.69a24.34,24.34,0,0,0,1.21,2.61c.45-4.15.93-8.07,2.42-11.61a21,21,0,0,1,3.23-4.91A26.23,26.23,0,0,0,41,76.88l1.27-2,2,1.14a5.5,5.5,0,0,1,2.38,3.87,6.51,6.51,0,0,0,.27.91l.62,1.48c1.12,2.63,2.28,5.34,3.56,7.79a134.7,134.7,0,0,0,10.81,17.69,49.4,49.4,0,0,0,4.87,5.5,6.86,6.86,0,0,0,.62.48,11.54,11.54,0,0,1,1,.81H70v6.23l-3.31-1.13-.27-.1H66l-.19-.29a17.06,17.06,0,0,1-4.82-3.84,18.79,18.79,0,0,0-2.1-2c-5.58-4.21-10.59-9.41-13.4-13.91l-.11-.21-.79-1.57c-.45,3.56-1.17,7.76-5.47,9.5-3.31,1.35-8.33,1.27-13.39-6.82-5.58-9-6.88-23.38-3.18-35.08.23-.73.4-1.56.58-2.44a19.45,19.45,0,0,1,1.26-4.37L24,58.21a9.44,9.44,0,0,1-1.3-1.35,51.66,51.66,0,0,1-3.82-6.44,83.18,83.18,0,0,1-4.28-10.68c-.33-1-.66-1.9-1-2.83a20.59,20.59,0,0,1-.75-2.57A12.89,12.89,0,0,0,12.06,32a32.09,32.09,0,0,0-3.58-5.49c-.38-.51-.75-1-1.1-1.5s-.82-1.06-1.32-1.68c-3-3.71-8-9.92-5.27-16.68a10.06,10.06,0,0,1,6.33-6c7-2.23,16.51,2.82,21.57,6a18.56,18.56,0,0,1,2.14,1.68,14.47,14.47,0,0,0,1.68,1.33l7.3.48,1.42.32c4.26,1,8.29,1.87,11.85,4,18,10.59,29,21.16,39.11,37.7a48.05,48.05,0,0,1,3.56,7.72c.48,1.25,1,2.54,1.54,3.8,2.65,6.08,5.42,11.93,8,16.91.41.82.76,1.61,1.11,2.39A24.23,24.23,0,0,0,109,87.64a8.56,8.56,0,0,0,1.31.51,13.5,13.5,0,0,1,1.73.68c1.17.59,2.44,1.13,3.78,1.71a45.14,45.14,0,0,1,6.76,3.34A147.71,147.71,0,0,1,139,106.23a20.94,20.94,0,0,1,3.23,3.67,22.91,22.91,0,0,0,1.86,2.3l.71.73v3.8l-6.53,1.87a34.06,34.06,0,0,1-5.36.86,27.82,27.82,0,0,0-4.55.72q-1.38.42-2.82.78a46.76,46.76,0,0,0,4.95,3.21c1.26.74,2.45,1.44,3.39,2.12a50.43,50.43,0,0,1,10.75,10.24l3.08,3.14a9.32,9.32,0,0,1,1,2,4.88,4.88,0,0,0,.49,1Z"/><path class="cls-1" d="M26.83,26.23a15.66,15.66,0,0,1,7,6c2.41,4,1.68,7.75,3,8,1.55.29,4.91-4.35,4-8C39.89,28.41,34.22,25.52,26.83,26.23Z"/></g></g></svg>