<svg xmlns="http://www.w3.org/2000/svg" viewBox="0 0 294.92 307.84"><defs><style>.cls-1{fill:#fff;}.cls-2{fill:#404040;}</style></defs><g id="Layer_2" data-name="Layer 2"><g id="Layer_1-2" data-name="Layer 1"><path class="cls-1" d="M294.54,187.43c-1.28-5.8-6.54-12.56-17.16-12.56a35.64,35.64,0,0,0-7.23.83,82.29,82.29,0,0,1-12.89,1.69C286.17,128.14,304.94,59.74,286.35,36,261.86,4.71,228.9,0,211.43,0h-1.64a103.22,103.22,0,0,0-20,2.37L164.7,7.83A96.31,96.31,0,0,0,154.19,7H152.8a68.12,68.12,0,0,0-30.36,6.81l-8.75-3.45C101.66,5.64,83.55,0,65.65,0c-1,0-2,0-3,.06C45,.69,29.84,7.39,18.81,19.41c-13.76,15-20,37-18.61,65.27.07,1.46,17.19,146.19,65.73,146.19h.62c6.3-.15,12.31-2.69,17.93-7.53a33.61,33.61,0,0,0,15,5.87,75,75,0,0,0,16.91,2A55.54,55.54,0,0,0,140.46,226c0,6.16-.05,14-.12,23.91v.53l0,.52c.68,9.93,2.39,18.87,5,25.89,7.35,20,20,31,35.75,31q1,0,2-.06c12.91-.8,26-8,35-19.39,9.75-12.27,12-25.23,12.87-35.15l.05-.61V223.48l.72.07,3.05.27.3,0,.29,0c.87,0,1.76,0,2.67,0,10.54,0,23.51-2.73,32.28-6.81C278.7,213.21,297.87,202.52,294.54,187.43ZM210,14c20.58-.33,46.56,6.6,65.33,30.58,12.4,15.84-.6,78-32.84,130.29a64.26,64.26,0,0,0-4.07-5.86c8.56-14.53,6.93-27,5.35-38a78.65,78.65,0,0,1-1.16-13.68c.15-4.61.68-9.21,1.2-13.65A124.69,124.69,0,0,0,245,85a9.35,9.35,0,0,0,.15-2.85c-1.12-11.93-16.93-48.81-52.44-66A88.52,88.52,0,0,1,210,14ZM79.3,208.65c-4.5,5.42-8.87,8.12-13.09,8.23-29.51.72-51.08-113.81-52-132.9C11.62,33.08,37,15,63.13,14c16.7-.61,34.5,5.07,45.42,9.37C86.12,43.21,78,76.55,77.13,97.68c0,0,0,0,0,.08a.78.78,0,0,0,0,.16c0,1,.13,2.89.33,5.38.61,7.5,1.73,21.43-.26,35.66-2.06,14.76,3.43,30.59,14.72,42.36a52.65,52.65,0,0,0,6.33,5.62C93.33,192.34,86.42,200.1,79.3,208.65ZM122,111.85c3.56.58,6.78-1.27,8.83-3.38a115.9,115.9,0,0,1,2.22,21.43c-.06,16.46-3.26,24.82-6.36,32.89l-1.13,3c-.79,2.13-1.63,4.11-2.42,6a61.64,61.64,0,0,0-3.59,10c-6.1-1-12.28-4.53-17.58-10.06-8.21-8.58-12.41-20.35-11-30.74,2.21-15.76,1-30.71.35-38.73-.09-1.16-.18-2.15-.23-2.92,2.34-3.17,14-8.89,24.9-7.67,6.18.68,10.23,3.45,12.47,8.27a21.54,21.54,0,0,0-5.38-1.6,22.5,22.5,0,0,0-3.56-.3c-4.13,0-7.23,1.29-7.47,3.34C111.79,103.93,116.23,110.91,122,111.85Zm-20,103.59c-8-1-20.3-7.24.55-12.55,11.66-2.4,16.38-4.37,19.69-6.93.37,0,.72.07,1.09.07.88,0,1.77-.07,2.65-.14h0a22.44,22.44,0,0,1,10,2.38l.75.33a7,7,0,0,1,3.44,5.12c.09.77.14,2.92.18,6.06C128.19,219.73,109.81,217.37,102.07,215.44Zm115.17-5.71-.23.15s.06,1.29.13,3.05c0,1.32-.13,2.51-.13,3.95h0V252c-.91,10.29-3.33,19.43-9.89,27.69-6.12,7.69-15.33,13.53-24.91,14.12-13.73.86-20.88-14-23.74-21.81-2-5.47-3.54-13-4.15-22,.15-20.72.22-44.47-.21-48a21.14,21.14,0,0,0-10.41-15.62,7.81,7.81,0,0,0-1-.48l-1.06-.46a41.9,41.9,0,0,0-7.87-2.66c.57-1.67,1.35-3.53,2.23-5.61s1.78-4.22,2.65-6.55l1.07-2.86C143.17,159,147,149,147.07,130a135,135,0,0,0-3.44-29c-3.2-14.8-14.22-23.35-30.24-23.47h-.3a52.6,52.6,0,0,0-19.83,4.24c4.51-22.94,18.4-61.34,60.65-60.65H154c48.54.8,69.95,40,75.66,56.24-14,1.22-23.66,6.19-28.82,14.81-11.79,19.67,5.43,50.81,13.71,65.78,1.44,2.6,2.57,4.58,3,5.72l.58,1.11c3.1,4.86,6,8.65,8.33,11.71.84,1.1,1.72,2.25,2.49,3.32C223.43,183.83,218.28,191,217.24,209.73Zm12.09-53.83c-.68-1.33-1.51-2.88-2.58-4.81-5-9.06-15.19-27.52-16-41.32a11.88,11.88,0,0,0,6.64,2.1,10.17,10.17,0,0,0,1.34-.09,12.19,12.19,0,0,0,6.86-3.41c.95-.92,3.1-3.31,2.72-5.85-.53-3.47-5.08-5.27-11.32-4.45a19.68,19.68,0,0,0-4,.9c2.84-4.4,8.82-7,17.84-7.75-.19,3.53-.53,7.11-1,10.84-.56,4.73-1.13,9.63-1.29,14.82A92,92,0,0,0,229.93,133C231.07,140.94,232.08,148.07,229.33,155.9Zm35.09,48.52c-7.1,3.29-19.19,5.88-28.42,5.46l-3.05-.27c-.63-.13-1.14-.2-1.72-.31,1-15.38,5.13-17.88,7.73-19.46.65-.4,1.35-.82,2-1.33,4.35,2.68,13.32,4.73,32,.89C288,186.29,279.7,197.33,264.42,204.42Z"/><path class="cls-2" d="M226.46,176.4c.84,1.1,1.72,2.25,2.49,3.32-5.52,4.11-10.67,11.31-11.71,30l-.23.15s.06,1.29.13,3.05c0,1.32-.13,2.51-.13,3.95h0V252c-.91,10.29-3.33,19.43-9.89,27.69-6.12,7.69-15.33,13.53-24.91,14.12-13.73.86-20.88-14-23.74-21.81-2-5.47-3.54-13-4.15-22,.15-20.72.22-44.47-.21-48a21.14,21.14,0,0,0-10.41-15.62,7.81,7.81,0,0,0-1-.48l-1.06-.46a41.9,41.9,0,0,0-7.87-2.66c.57-1.67,1.35-3.53,2.23-5.61s1.78-4.22,2.65-6.55l1.07-2.86C143.17,159,147,149,147.07,130a135,135,0,0,0-3.44-29c-3.2-14.8-14.22-23.35-30.24-23.47h-.3a52.6,52.6,0,0,0-19.83,4.24c4.51-22.94,18.4-61.34,60.65-60.65H154c48.54.8,69.95,40,75.66,56.24-14,1.22-23.66,6.19-28.82,14.81-11.79,19.67,5.43,50.81,13.71,65.78,1.44,2.6,2.57,4.58,3,5.72l.58,1.11C221.23,169.55,224.13,173.34,226.46,176.4Z"/><path class="cls-2" d="M77.13,97.68s0,0,0,.08a.78.78,0,0,0,0,.16c0,1,.13,2.89.33,5.38.61,7.5,1.73,21.43-.26,35.66-2.06,14.76,3.43,30.59,14.72,42.36a52.65,52.65,0,0,0,6.33,5.62c-4.91,5.4-11.82,13.16-18.94,21.71-4.5,5.42-8.87,8.12-13.09,8.23-29.51.72-51.08-113.81-52-132.9C11.62,33.08,37,15,63.13,14c16.7-.61,34.5,5.07,45.42,9.37C86.12,43.21,78,76.55,77.13,97.68Z"/><path class="cls-2" d="M242.5,174.9a64.26,64.26,0,0,0-4.07-5.86c8.56-14.53,6.93-27,5.35-38a78.65,78.65,0,0,1-1.16-13.68c.15-4.61.68-9.21,1.2-13.65A124.69,124.69,0,0,0,245,85a9.35,9.35,0,0,0,.15-2.85c-1.12-11.93-16.93-48.81-52.44-66A88.52,88.52,0,0,1,210,14c20.58-.33,46.56,6.6,65.33,30.58C287.74,60.45,274.74,122.61,242.5,174.9Z"/><path class="cls-2" d="M264.42,204.42c-7.1,3.29-19.19,5.88-28.42,5.46l-3.05-.27c-.63-.13-1.14-.2-1.72-.31,1-15.38,5.13-17.88,7.73-19.46.65-.4,1.35-.82,2-1.33,4.35,2.68,13.32,4.73,32,.89C288,186.29,279.7,197.33,264.42,204.42Z"/><path class="cls-2" d="M140.41,209.78c-12.22,9.95-30.6,7.59-38.34,5.66-8-1-20.3-7.24.55-12.55,11.66-2.4,16.38-4.37,19.69-6.93.37,0,.72.07,1.09.07.88,0,1.77-.07,2.65-.14h0a22.44,22.44,0,0,1,10,2.38l.75.33a7,7,0,0,1,3.44,5.12C140.32,204.49,140.37,206.64,140.41,209.78Z"/><path class="cls-2" d="M133.07,129.9c-.06,16.46-3.26,24.82-6.36,32.89l-1.13,3c-.79,2.13-1.63,4.11-2.42,6a61.64,61.64,0,0,0-3.59,10c-6.1-1-12.28-4.53-17.58-10.06-8.21-8.58-12.41-20.35-11-30.74,2.21-15.76,1-30.71.35-38.73-.09-1.16-.18-2.15-.23-2.92,2.34-3.17,14-8.89,24.9-7.67,6.18.68,10.23,3.45,12.47,8.27a21.54,21.54,0,0,0-5.38-1.6,22.5,22.5,0,0,0-3.56-.3c-4.13,0-7.23,1.29-7.47,3.34-.32,2.63,4.12,9.61,9.91,10.55,3.56.58,6.78-1.27,8.83-3.38A115.9,115.9,0,0,1,133.07,129.9Z"/><path class="cls-2" d="M229.33,155.9c-.68-1.33-1.51-2.88-2.58-4.81-5-9.06-15.19-27.52-16-41.32a11.88,11.88,0,0,0,6.64,2.1,10.17,10.17,0,0,0,1.34-.09,12.19,12.19,0,0,0,6.86-3.41c.95-.92,3.1-3.31,2.72-5.85-.53-3.47-5.08-5.27-11.32-4.45a19.68,19.68,0,0,0-4,.9c2.84-4.4,8.82-7,17.84-7.75-.19,3.53-.53,7.11-1,10.84-.56,4.73-1.13,9.63-1.29,14.82A92,92,0,0,0,229.93,133C231.07,140.94,232.08,148.07,229.33,155.9Z"/></g></g></svg>